<?xml version="1.0" encoding="utf-8"?>
<!-- Generator: Adobe Illustrator 20.1.0, SVG Export Plug-In . SVG Version: 6.00 Build 0)  -->
<svg version="1.1" id="レイヤー_1" xmlns="http://www.w3.org/2000/svg" xmlns:xlink="http://www.w3.org/1999/xlink" x="0px"
	 y="0px" width="18.9px" height="18.9px" viewBox="0 0 18.9 18.9" style="enable-background:new 0 0 18.9 18.9;"
	 xml:space="preserve">
<style type="text/css">
	.st0{fill:none;stroke:#958259;stroke-linecap:round;stroke-linejoin:round;stroke-miterlimit:10;}
</style>
<g>
	<path class="st0" d="M18,7.8l-2-0.1c-0.2,0-0.3-0.1-0.4-0.3l-0.4-1c-0.1-0.2,0-0.4,0.1-0.5l1.3-1.4c0.2-0.2,0.2-0.5,0-0.6L15,2.3
		c-0.2-0.2-0.5-0.2-0.6,0l-1.4,1.3c-0.1,0.1-0.3,0.2-0.5,0.1l-1-0.4c-0.2-0.1-0.3-0.2-0.3-0.4l-0.1-2c0-0.2-0.2-0.4-0.5-0.4H8.3
		c-0.2,0-0.4,0.2-0.5,0.4l-0.1,2c0,0.2-0.1,0.3-0.3,0.4l-1,0.4C6.3,3.8,6.1,3.7,6,3.6L4.6,2.3c-0.2-0.2-0.5-0.2-0.6,0L2.3,3.9
		c-0.2,0.2-0.2,0.5,0,0.6L3.6,6c0.1,0.1,0.2,0.3,0.1,0.5l-0.4,1C3.2,7.6,3.1,7.7,2.9,7.8l-2,0.1c-0.2,0-0.4,0.2-0.4,0.5v2.3
		c0,0.2,0.2,0.4,0.4,0.5l2,0.1c0.2,0,0.3,0.1,0.4,0.3l0.4,1c0.1,0.2,0,0.4-0.1,0.5l-1.3,1.4c-0.2,0.2-0.2,0.5,0,0.6l1.6,1.6
		c0.2,0.2,0.5,0.2,0.6,0L6,15.3c0.1-0.1,0.3-0.2,0.5-0.1l1,0.4c0.2,0.1,0.3,0.2,0.3,0.4l0.1,2c0,0.2,0.2,0.4,0.5,0.4h2.3
		c0.2,0,0.4-0.2,0.5-0.4l0.1-2c0-0.2,0.1-0.3,0.3-0.4l1-0.4c0.2-0.1,0.4,0,0.5,0.1l1.4,1.3c0.2,0.2,0.5,0.2,0.6,0l1.6-1.6
		c0.2-0.2,0.2-0.5,0-0.6l-1.3-1.4c-0.1-0.1-0.2-0.3-0.1-0.5l0.4-1c0.1-0.2,0.2-0.3,0.4-0.3l2-0.1c0.2,0,0.4-0.2,0.4-0.5V8.3
		C18.4,8.1,18.2,7.9,18,7.8z M9.4,12.4c-1.6,0-2.9-1.3-2.9-2.9c0-1.6,1.3-2.9,2.9-2.9s2.9,1.3,2.9,2.9C12.4,11.1,11.1,12.4,9.4,12.4
		z"/>
</g>
</svg>
