<?xml version="1.0" encoding="utf-8"?>
<!-- Generator: Adobe Illustrator 20.1.0, SVG Export Plug-In . SVG Version: 6.00 Build 0)  -->
<svg version="1.1" id="レイヤー_1" xmlns="http://www.w3.org/2000/svg" xmlns:xlink="http://www.w3.org/1999/xlink" x="0px"
	 y="0px" width="20px" height="18.4px" viewBox="0 0 20 18.4" style="enable-background:new 0 0 20 18.4;" xml:space="preserve">
<style type="text/css">
	.st0{fill:none;stroke:#e45733;stroke-linecap:round;stroke-linejoin:round;stroke-miterlimit:10;}
	.st1{fill:none;stroke:#e45733;stroke-linecap:round;stroke-linejoin:round;}
</style>
<polyline class="st0" points="10.8,16.5 0.5,16.5 0.5,0.5 13.8,0.5 13.8,5.9 "/>
<g>
	<line class="st0" x1="3.5" y1="5.1" x2="10.8" y2="5.1"/>
	<line class="st0" x1="3.5" y1="8.1" x2="10.8" y2="8.1"/>
	<line class="st0" x1="3.5" y1="11.1" x2="9.3" y2="11.1"/>
</g>
<circle class="st0" cx="14.4" cy="12.7" r="5.1"/>
<path class="st1" d="M13.4,15.4v-4.9H15c0.5,0,0.9,0.1,1.1,0.3c0.3,0.2,0.4,0.5,0.4,1c0,0.2,0,0.4-0.1,0.5c-0.1,0.2-0.2,0.3-0.3,0.4
	c-0.1,0.1-0.3,0.2-0.5,0.3C15.4,13,15.2,13,15,13h-1.5"/>
</svg>
