<?xml version="1.0" encoding="utf-8"?>
<!-- Generator: Adobe Illustrator 19.2.1, SVG Export Plug-In . SVG Version: 6.00 Build 0)  -->
<svg version="1.1" id="レイヤー_1" xmlns="http://www.w3.org/2000/svg" xmlns:xlink="http://www.w3.org/1999/xlink" x="0px"
	 y="0px" width="63px" height="79.4px" viewBox="0 0 63 79.4" style="enable-background:new 0 0 63 79.4;" xml:space="preserve">
<style type="text/css">
	.st0{fill:none;stroke:#F43100;stroke-width:3;stroke-linecap:round;stroke-linejoin:round;stroke-miterlimit:10;}
	.st1{fill:none;stroke:#F43100;stroke-width:3;stroke-miterlimit:10;}
</style>
<g>
	<path class="st0" d="M56.4,72.8c-5,5-12.4,6.3-18.6,3.9c-2.2-0.8-4.2-2.2-6-3.9C25,66.1,25,55,31.8,48.2s17.8-6.8,24.6,0
		S63.2,66.1,56.4,72.8z"/>
	<g>
		<line class="st0" x1="39.2" y1="55.6" x2="49.1" y2="65.5"/>
		<line class="st0" x1="49.1" y1="55.6" x2="39.2" y2="65.5"/>
	</g>
</g>
<path class="st1" d="M50.8,8.2H36.2V1.5h-20v6.7H1.5v10.6h49.3V8.2z M21.5,6.8h9.4v1.4h-9.4V6.8z"/>
<path class="st1" d="M45.7,42.2l1.5-18.1h-42l3.4,51.1L34.2,75"/>
<path class="st1" d="M8,70.7"/>
<path class="st1" d="M8,71.4"/>
</svg>
