<?xml version="1.0" encoding="utf-8"?>
<!-- Generator: Adobe Illustrator 20.1.0, SVG Export Plug-In . SVG Version: 6.00 Build 0)  -->
<svg version="1.1" id="レイヤー_1" xmlns="http://www.w3.org/2000/svg" xmlns:xlink="http://www.w3.org/1999/xlink" x="0px"
	 y="0px" width="21.1px" height="16.6px" viewBox="0 0 21.1 16.6" style="enable-background:new 0 0 21.1 16.6;"
	 xml:space="preserve">
<style type="text/css">
	.st0{fill:none;stroke:#958259;stroke-linecap:round;stroke-linejoin:round;stroke-miterlimit:10;}
	.st1{fill:none;stroke:#958259;stroke-linecap:round;stroke-linejoin:round;}
</style>
<path class="st0" d="M12.3,15c-1.2,0.7-2.5,1.1-4,1.1c-4.3,0-7.8-3.5-7.8-7.8S4,0.5,8.3,0.5s7.8,3.5,7.8,7.8c0,0.7-0.1,1.3-0.3,2"/>
<path class="st1" d="M6.8,12.4V4.9h2.3c0.7,0,1.3,0.2,1.7,0.5c0.4,0.3,0.6,0.8,0.6,1.5c0,0.3-0.1,0.5-0.2,0.8
	C11.2,7.8,11,8,10.8,8.2c-0.2,0.2-0.4,0.3-0.7,0.4C9.8,8.7,9.5,8.8,9.1,8.8H6.8"/>
<g>
	<line class="st1" x1="11.6" y1="12.6" x2="20.1" y2="12.6"/>
	<polyline class="st1" points="18.3,10.3 20.6,12.6 18.3,15 	"/>
</g>
</svg>
