<?xml version="1.0" encoding="utf-8"?>
<!-- Generator: Adobe Illustrator 19.2.1, SVG Export Plug-In . SVG Version: 6.00 Build 0)  -->
<svg version="1.1" id="レイヤー_1" xmlns="http://www.w3.org/2000/svg" xmlns:xlink="http://www.w3.org/1999/xlink" x="0px"
	 y="0px" width="69.5px" height="41.1px" viewBox="0 0 69.5 41.1" style="enable-background:new 0 0 69.5 41.1;"
	 xml:space="preserve">
<style type="text/css">
	.st0{fill:none;stroke:#958259;stroke-width:2;stroke-linecap:round;stroke-linejoin:round;stroke-miterlimit:10;}
</style>
<g>
	<path class="st0" d="M52.9,40.1c0.7-7.2-8.2-9.4-10.7-10.2c-1.4-0.5-2.4-1.2-2.4-2.2c0-0.6,0-1.4,0-2.5c0.2-0.4,1.7-2.2,2.1-4.5
		c1.1-0.3,1.7-0.9,2.4-3.2c0.4-1.3,0.1-1.9-0.4-2.2c0.1-0.1,0.2-0.3,0.3-0.4C45,13.1,45.8,6,41,3.4C39.4,1.9,37.1,1,34.6,1
		c-5.3,0-9.7,4.1-10.2,9.3v0.1c-0.4,2.4,0.5,5,0.5,5H25c-0.3,0.3-0.6,0.9-0.2,2.1c0.8,2.4,1.4,2.9,2.4,3.2c0.5,2.3,1.9,3.9,2.1,4.5
		c0,1.1,0,1.9,0,2.5c0,0.9-1.1,1.8-2.4,2.2c-2.5,0.8-11.3,3.1-10.6,10.2"/>
	<path class="st0" d="M53.5,40.1h14.9c0.6-6.1-7-8-9.1-8.7c-1.2-0.4-2.1-1-2.1-1.8c0-0.5,0-1.2,0-2.1c0.2-0.3,1.4-1.9,1.8-3.9
		c0.9-0.3,1.4-0.7,2.1-2.8c0.4-1.1,0.1-1.6-0.3-1.9c0.1-0.1,0.2-0.2,0.2-0.4"/>
	<path class="st0" d="M15.9,40.1H1c-0.6-6.1,7-8,9.1-8.7c1.2-0.4,2.1-1,2.1-1.8c0-0.5,0-1.2,0-2.1c-0.2-0.3-1.4-1.9-1.8-3.9
		c-0.9-0.3-1.4-0.7-2.1-2.8c-0.4-1.1-0.1-1.6,0.3-1.9c-0.1-0.1-0.2-0.2-0.2-0.4c-0.6-1.5-1.3-7.6,2.7-9.9c1.5-1.3,3.5-2,5.6-2
		c1.4,0,2.7,0.3,3.9,0.9"/>
</g>
<path class="st0" d="M61.3,13.6"/>
<g>
	<path class="st0" d="M67.8,39.9c0.5-6.1-6.5-8-8.5-8.7c-1.1-0.4-1.9-1-1.9-1.8c0-0.5,0-1.2,0-2.1c0.2-0.3,1.3-1.9,1.7-3.8
		c0.8-0.3,1.3-0.7,1.9-2.7c0.3-1.1,0.1-1.6-0.3-1.9c0.1-0.1,0.2-0.2,0.2-0.4c0.6-1.5,1.2-7.6-2.5-9.8c-1.4-1.3-3.2-2-5.2-2
		c-2.1,0-4.1,0.9-5.5,2.3"/>
</g>
</svg>
