<?xml version="1.0" encoding="utf-8"?>
<!-- Generator: Adobe Illustrator 19.2.1, SVG Export Plug-In . SVG Version: 6.00 Build 0)  -->
<svg version="1.1" id="レイヤー_1" xmlns="http://www.w3.org/2000/svg" xmlns:xlink="http://www.w3.org/1999/xlink" x="0px"
	 y="0px" width="19.6px" height="20px" viewBox="0 0 19.6 20" style="enable-background:new 0 0 19.6 20;" xml:space="preserve">
<style type="text/css">
	.st0{fill:none;stroke:#F43100;stroke-linecap:round;stroke-linejoin:round;}
	.st1{fill:none;stroke:#F43100;stroke-linecap:round;stroke-linejoin:round;stroke-miterlimit:10;}
</style>
<g>
	<path class="st0" d="M6.8,12.4V4.9h2.3c0.7,0,1.3,0.2,1.7,0.5c0.4,0.3,0.6,0.8,0.6,1.5c0,0.3-0.1,0.5-0.2,0.8
		C11.2,7.8,11,8,10.8,8.2c-0.2,0.2-0.4,0.3-0.7,0.4S9.5,8.8,9.1,8.8H6.8"/>
	<path class="st0" d="M10.2,15.9C9.6,16,9,16.1,8.3,16.1c-4.3,0-7.8-3.5-7.8-7.8C0.5,4,4,0.5,8.3,0.5c4.3,0,7.8,3.5,7.8,7.8
		c0,0.7-0.1,1.3-0.2,1.9"/>
	<circle class="st1" cx="14.6" cy="15" r="4.5"/>
	<polyline class="st1" points="16.3,14 14.3,16 12.9,14.7 	"/>
</g>
</svg>
