<?xml version="1.0" encoding="utf-8"?>
<!-- Generator: Adobe Illustrator 20.1.0, SVG Export Plug-In . SVG Version: 6.00 Build 0)  -->
<svg version="1.1" id="レイヤー_1" xmlns="http://www.w3.org/2000/svg" xmlns:xlink="http://www.w3.org/1999/xlink" x="0px"
	 y="0px" width="17.5px" height="17.5px" viewBox="0 0 17.5 17.5" style="enable-background:new 0 0 17.5 17.5;"
	 xml:space="preserve">
<style type="text/css">
	.st0{fill:none;stroke:#958259;stroke-linecap:round;stroke-linejoin:round;stroke-miterlimit:10;}
</style>
<g>
	<path class="st0" d="M13.9,14.9c0.2-2-2.3-2.7-3-2.9c-0.4-0.1-0.7-0.3-0.7-0.6c0-0.2,0-0.4,0-0.7c0.1-0.1,0.5-0.6,0.6-1.3
		c0.3-0.1,0.5-0.2,0.7-0.9c0.1-0.4,0-0.5-0.1-0.6c0,0,0.1-0.1,0.1-0.1c0.2-0.5,0.4-2.5-0.9-3.3c-0.5-0.4-1.1-0.7-1.9-0.7
		C7.2,3.8,6,5,5.9,6.5c0,0,0,0,0,0C5.7,7.2,6,7.9,6,7.9l0,0C5.9,8,5.9,8.2,6,8.5c0.2,0.7,0.4,0.8,0.7,0.9c0.1,0.6,0.5,1.1,0.6,1.3
		c0,0.3,0,0.5,0,0.7c0,0.3-0.3,0.5-0.7,0.6c-0.7,0.2-3.2,0.9-3,2.9"/>
	<circle class="st0" cx="8.8" cy="8.8" r="8.2"/>
</g>
</svg>
