<?xml version="1.0" encoding="utf-8"?>
<!-- Generator: Adobe Illustrator 19.2.1, SVG Export Plug-In . SVG Version: 6.00 Build 0)  -->
<svg version="1.1" id="レイヤー_1" xmlns="http://www.w3.org/2000/svg" xmlns:xlink="http://www.w3.org/1999/xlink" x="0px"
	 y="0px" width="17.2px" height="18.1px" viewBox="0 0 17.2 18.1" style="enable-background:new 0 0 17.2 18.1;"
	 xml:space="preserve">
<style type="text/css">
	.st0{fill:none;stroke:#F43100;stroke-linecap:round;stroke-linejoin:round;stroke-miterlimit:10;}
</style>
<g>
	<path class="st0" d="M8.7,10.1C8.2,10,8.4,9.7,8.4,9.4c0-0.2,0-0.5,0-0.8c0.1-0.1,0.6-0.7,0.7-1.5C9.4,7,9.6,6.8,9.9,6
		c0.1-0.4,0-0.6-0.1-0.7c0,0,0.1-0.1,0.1-0.1c0.3-0.6,0.5-3-1.1-3.8C8.2,0.8,7.5,0.5,6.6,0.5c-1.8,0-3.2,1.4-3.4,3.1c0,0,0,0,0,0
		C3.1,4.5,3.4,5.3,3.4,5.3l0,0C3.3,5.4,3.2,5.6,3.3,6c0.3,0.8,0.5,1,0.8,1.1c0.2,0.8,0.6,1.3,0.7,1.5c0,0.4,0,0.6,0,0.8
		c0,0.3-0.4,0.6-0.8,0.7c-0.8,0.3-3.8,1-3.5,3.4"/>
	<path class="st0" d="M12.5,15.2"/>
</g>
<g>
	<circle class="st0" cx="12.2" cy="13.1" r="4.5"/>
	<polyline class="st0" points="13.9,12.1 11.9,14.1 10.6,12.8 	"/>
</g>
</svg>
