<?xml version="1.0" encoding="utf-8"?>
<!-- Generator: Adobe Illustrator 20.1.0, SVG Export Plug-In . SVG Version: 6.00 Build 0)  -->
<svg version="1.1" id="レイヤー_1" xmlns="http://www.w3.org/2000/svg" xmlns:xlink="http://www.w3.org/1999/xlink" x="0px"
	 y="0px" width="31px" height="31px" viewBox="0 0 31 31" style="enable-background:new 0 0 31 31;" xml:space="preserve">
<style type="text/css">
	.st0{fill:none;stroke:#FFFFFF;stroke-linecap:round;stroke-linejoin:round;stroke-miterlimit:10;}
</style>
<g>
	<circle class="st0" cx="15.5" cy="15.5" r="15"/>
</g>
<g>
	<path class="st0" d="M23.2,14L21.4,14c-0.2,0-0.3-0.1-0.4-0.3l-0.4-0.9c-0.1-0.1,0-0.3,0.1-0.4l1.2-1.3c0.1-0.2,0.1-0.4,0-0.6
		L20.5,9c-0.2-0.2-0.4-0.2-0.6,0l-1.3,1.2c-0.1,0.1-0.3,0.1-0.4,0.1l-0.9-0.4C17.1,9.9,17,9.7,17,9.6L17,7.8c0-0.2-0.2-0.4-0.4-0.4
		h-2.1c-0.2,0-0.4,0.2-0.4,0.4L14,9.6c0,0.2-0.1,0.3-0.3,0.4l-0.9,0.4c-0.2,0.1-0.3,0-0.4-0.1L11.1,9c-0.2-0.2-0.4-0.1-0.6,0L9,10.5
		c-0.2,0.2-0.2,0.4,0,0.6l1.2,1.3c0.1,0.1,0.1,0.3,0.1,0.4l-0.4,0.9C9.9,13.9,9.7,14,9.6,14L7.8,14c-0.2,0-0.4,0.2-0.4,0.4v2.1
		c0,0.2,0.2,0.4,0.4,0.4L9.6,17c0.2,0,0.3,0.1,0.4,0.3l0.4,0.9c0.1,0.1,0,0.3-0.1,0.4L9,19.9c-0.2,0.2-0.1,0.4,0,0.6l1.5,1.5
		c0.2,0.2,0.4,0.2,0.6,0l1.3-1.2c0.1-0.1,0.3-0.1,0.4-0.1l0.9,0.4c0.1,0.1,0.2,0.2,0.3,0.4l0.1,1.8c0,0.2,0.2,0.4,0.4,0.4h2.1
		c0.2,0,0.4-0.2,0.4-0.4l0.1-1.8c0-0.2,0.1-0.3,0.3-0.4l0.9-0.4c0.1-0.1,0.3,0,0.4,0.1l1.3,1.2c0.2,0.1,0.4,0.1,0.6,0l1.5-1.5
		c0.2-0.2,0.2-0.4,0-0.6l-1.2-1.3c-0.1-0.1-0.1-0.3-0.1-0.4l0.4-0.9c0.1-0.1,0.2-0.2,0.4-0.3l1.8-0.1c0.2,0,0.4-0.2,0.4-0.4v-2.1
		C23.6,14.2,23.4,14.1,23.2,14z M15.5,18.2c-1.5,0-2.7-1.2-2.7-2.7c0-1.5,1.2-2.7,2.7-2.7s2.6,1.2,2.6,2.7
		C18.2,17,17,18.2,15.5,18.2z"/>
</g>
</svg>
