<?xml version="1.0" encoding="utf-8"?>
<!-- Generator: Adobe Illustrator 20.1.0, SVG Export Plug-In . SVG Version: 6.00 Build 0)  -->
<svg version="1.1" id="レイヤー_1" xmlns="http://www.w3.org/2000/svg" xmlns:xlink="http://www.w3.org/1999/xlink" x="0px"
	 y="0px" width="17px" height="17px" viewBox="0 0 17 17" style="enable-background:new 0 0 17 17;" xml:space="preserve">
<style type="text/css">
	.st0{fill:none;stroke:#F43100;stroke-linecap:round;stroke-linejoin:round;stroke-miterlimit:10;}
	.st1{fill:#F43100;stroke:#F43100;stroke-width:0.5;stroke-linecap:round;stroke-linejoin:round;stroke-miterlimit:10;}
</style>
<g>
	<circle class="st0" cx="8.5" cy="8.5" r="8"/>
</g>
<g>
	<path class="st1" d="M6,6.2c0.2-1.4,1.2-2.2,2.6-2.2C10,4.1,11,4.9,11,6.2c0,0.8-0.3,1.3-1.3,2.2C9,9,8.8,9.4,8.8,10.5H8v-0.3
		C8,9.2,8.3,8.7,9,8c0.8-0.8,1-1.2,1-1.8c0-0.8-0.5-1.3-1.4-1.3C7.7,4.9,7.1,5.5,7,6.5L6,6.2z M9.1,12.9H7.8v-1.3h1.3V12.9z"/>
</g>
</svg>
