<?xml version="1.0" encoding="utf-8"?>
<!-- Generator: Adobe Illustrator 20.1.0, SVG Export Plug-In . SVG Version: 6.00 Build 0)  -->
<svg version="1.1" id="レイヤー_1" xmlns="http://www.w3.org/2000/svg" xmlns:xlink="http://www.w3.org/1999/xlink" x="0px"
	 y="0px" width="15.5px" height="16.5px" viewBox="0 0 15.5 16.5" style="enable-background:new 0 0 15.5 16.5;"
	 xml:space="preserve">
<style type="text/css">
	.st0{fill:none;stroke:#FFFFFF;stroke-linecap:round;stroke-linejoin:round;stroke-miterlimit:10;}
</style>
<path class="st0" d="M15,16c0.3-2.8-3.2-3.7-4.2-4c-0.6-0.2-1-0.5-1-0.9c0-0.2,0-0.6,0-1c0.1-0.2,0.7-0.9,0.8-1.8
	c0.4-0.1,0.7-0.3,1-1.3c0.2-0.5,0-0.8-0.1-0.9c0-0.1,0.1-0.1,0.1-0.2c0.3-0.7,0.6-3.5-1.2-4.6C9.6,0.9,8.7,0.5,7.8,0.5
	c-2.1,0-3.8,1.6-4,3.7c0,0,0,0,0,0.1c-0.1,1,0.2,2,0.2,2l0,0C3.8,6.3,3.7,6.6,3.9,7c0.3,0.9,0.5,1.1,1,1.3C5,9.2,5.6,9.8,5.7,10.1
	c0,0.4,0,0.7,0,1c0,0.4-0.5,0.7-1,0.9c-1,0.3-4.5,1.2-4.2,4"/>
</svg>
