<?xml version="1.0" encoding="utf-8"?>
<!-- Generator: Adobe Illustrator 19.2.1, SVG Export Plug-In . SVG Version: 6.00 Build 0)  -->
<svg version="1.1" id="レイヤー_1" xmlns="http://www.w3.org/2000/svg" xmlns:xlink="http://www.w3.org/1999/xlink" x="0px"
	 y="0px" width="30.2px" height="30.2px" viewBox="0 0 30.2 30.2" style="enable-background:new 0 0 30.2 30.2;"
	 xml:space="preserve">
<style type="text/css">
	.st0{fill:#989EAD;stroke:#989EAD;stroke-miterlimit:10;}
	.st1{fill:none;stroke:#989EAD;stroke-miterlimit:10;}
</style>
<g>
	<path class="st0" d="M29.8,15.1c0-8.1-6.5-14.6-14.6-14.6C7,0.5,0.5,7,0.5,15.1c0,4.6,2.1,8.7,5.4,11.4V26
		c-0.3-3.6,4.1-4.7,5.3-5.1c0.6-0.2,1.2-0.6,1.2-1.1c0-0.3,0-0.7,0-1.3c-0.1-0.3-0.8-1.1-1.1-2.3c-0.5-0.2-0.8-0.4-1.2-1.6
		c-0.2-0.6-0.1-0.9,0.1-1l0,0c0,0-0.4-1.3-0.3-2.5c0,0,0,0,0-0.1c0.2-2.6,2.4-4.7,5.1-4.7c1.3,0,2.4,0.4,3.3,1.2
		c2.4,1.3,2,4.9,1.6,5.8c0,0.1-0.1,0.1-0.1,0.2c0.2,0.1,0.4,0.4,0.2,1.1c-0.4,1.2-0.7,1.5-1.2,1.6c-0.2,1.1-1,2.1-1.1,2.3
		c0,0.5,0,0.9,0,1.3c0,0.5,0.5,0.8,1.2,1.1c1.2,0.4,5.7,1.5,5.3,5.1h0v0.4C27.6,23.8,29.8,19.7,29.8,15.1z"/>
</g>
<circle class="st1" cx="15.1" cy="15.1" r="14.6"/>
</svg>
